<svg width="74" height="74" viewBox="0 0 74 74" fill="none" xmlns="http://www.w3.org/2000/svg">
<mask id="mask0_960_1349" style="mask-type:luminance" maskUnits="userSpaceOnUse" x="0" y="0" width="74" height="74">
<path d="M74 0H0V74H74V0Z" fill="white"/>
</mask>
<g mask="url(#mask0_960_1349)">
<path d="M58.2652 67.2783C67.785 60.5851 73.9981 49.5188 73.9981 36.9991C73.9981 16.5729 57.4252 0 36.9991 0C16.5729 0 0 16.5729 0 36.9991C0 55.212 13.173 70.3582 30.5059 73.4248C27.9593 70.5582 26.6793 66.065 26.6793 59.9318V31.1192H17.8796V18.2529H26.6793V10.3331L42.0789 6.26651V18.2529H57.5852V31.1192H42.0789V51.1454C42.0789 55.7586 42.5189 59.0919 43.3989 61.1451C44.3456 63.1184 46.1855 64.1184 48.9054 64.1184C50.5987 64.1184 52.012 63.9984 53.1853 63.7851C54.3586 63.4917 55.6119 63.0518 56.9319 62.4651" fill="#119EF9"/>
</g>
</svg>
